<svg width="299" height="69" viewBox="0 0 299 69" fill="none" xmlns="http://www.w3.org/2000/svg">
<path d="M44.3517 37.3364L33.0138 43.9282L44.6154 50.5859L56.2169 43.7305L44.879 37.3364L45.67 35.9521L44.879 37.3364C44.7032 37.2046 44.5275 37.2046 44.3517 37.3364ZM31.9591 45.7739V59.1553C31.9591 59.3311 32.047 59.4849 32.2228 59.6167L43.5607 65.9448V52.4316L31.9591 45.7739ZM45.67 65.9448L57.0079 59.6167C57.1837 59.4849 57.2716 59.3311 57.2716 59.1553V45.5762L45.67 52.4316V65.9448ZM43.297 35.4907C44.1759 35.0073 45.0548 35.0073 45.9337 35.4907L58.0626 42.3462C58.8976 42.8735 59.337 43.6426 59.381 44.6533V59.1553C59.337 60.166 58.8976 60.9351 58.0626 61.4624L45.9337 68.252C45.0548 68.6914 44.1759 68.6914 43.297 68.252L31.1681 61.4624C30.3331 60.9351 29.8937 60.166 29.8497 59.1553V44.8511C29.8937 43.8843 30.3331 43.1372 31.1681 42.6099L43.297 35.4907Z" fill="url(#paint0_linear_201_12)"/>
<path d="M12.6068 36.0112C13.5427 35.5636 14.4786 35.5636 15.4144 36.0112L26.0956 41.8706C26.4211 42.0741 26.6042 42.3589 26.6449 42.7251C26.6042 43.0913 26.4211 43.3761 26.0956 43.5796L14.4989 49.9272C14.1734 50.09 13.8479 50.09 13.5223 49.9272L1.92566 43.5796C1.60014 43.3761 1.41703 43.0913 1.37634 42.7251C1.41703 42.3589 1.60014 42.0741 1.92566 41.8706L12.6068 36.0112ZM1.80359 45.7769L12.5458 51.6362C12.8713 51.8397 13.0341 52.1245 13.0341 52.4907V65.6743C13.0341 66.0405 12.8713 66.3254 12.5458 66.5288C12.2203 66.6916 11.8947 66.6916 11.5692 66.5288L1.86462 61.2188C0.888062 60.6491 0.379435 59.7946 0.338745 58.6553V46.6313C0.338745 46.2651 0.501506 45.9803 0.827026 45.7769C1.15255 45.6141 1.47807 45.6141 1.80359 45.7769ZM26.2177 45.7769C26.5432 45.6141 26.8687 45.6141 27.1942 45.7769C27.5197 45.9803 27.6825 46.2651 27.6825 46.6313V58.6553C27.6418 59.7946 27.1332 60.6491 26.1566 61.2188L16.452 66.5288C16.1265 66.6916 15.801 66.6916 15.4755 66.5288C15.1499 66.3254 14.9872 66.0405 14.9872 65.6743V52.4907C14.9872 52.1245 15.1499 51.8397 15.4755 51.6362L26.2177 45.7769Z" fill="url(#paint1_linear_201_12)"/>
<path d="M36.7508 6.596L24.0932 10.0287L33.5763 19.4623L46.5569 15.8431L37.2602 6.73249L38.3825 5.60011L37.2602 6.73249C37.1245 6.55965 36.9547 6.51416 36.7508 6.596ZM22.5967 11.5386L19.1334 24.464C19.0879 24.6338 19.133 24.8051 19.2687 24.9779L28.5824 34.0249L32.0799 20.9721L22.5967 11.5386ZM30.6199 34.5708L43.2093 31.3928C43.4132 31.3109 43.5379 31.1851 43.5834 31.0153L47.0979 17.8989L34.1174 21.5181L30.6199 34.5708ZM36.2098 4.54022C37.1838 4.30077 38.0328 4.52825 38.7566 5.22265L48.698 14.9837C49.368 15.7092 49.5934 16.5658 49.3743 17.5535L45.6209 31.5613C45.3169 32.5262 44.6934 33.1553 43.7504 33.4486L30.2775 36.8676C29.3148 37.0646 28.4658 36.8371 27.7306 36.1852L17.7722 26.4878C17.1022 25.7623 16.8768 24.9057 17.0959 23.918L20.7981 10.1012C21.0908 9.17874 21.7086 8.57086 22.6516 8.27759L36.2098 4.54022Z" fill="url(#paint2_linear_201_12)"/>
<path d="M83.2099 48.8159C81.3165 48.8159 79.5365 48.4426 77.8699 47.6959C76.2032 46.9359 74.7365 45.8959 73.4699 44.5759C72.2165 43.2426 71.2299 41.6959 70.5099 39.9359C69.8032 38.1759 69.4499 36.2959 69.4499 34.2959C69.4499 32.2959 69.8032 30.4159 70.5099 28.6559C71.2299 26.8959 72.2165 25.3559 73.4699 24.0359C74.7365 22.7026 76.2032 21.6626 77.8699 20.9159C79.5365 20.1559 81.3165 19.7759 83.2099 19.7759C85.4765 19.7759 87.5632 20.3026 89.4699 21.3559C91.3765 22.4092 92.9565 23.8092 94.2099 25.5559L92.3099 26.5959C91.2565 25.1692 89.9165 24.0359 88.2899 23.1959C86.6765 22.3559 84.9832 21.9359 83.2099 21.9359C81.5832 21.9359 80.0699 22.2626 78.6699 22.9159C77.2699 23.5692 76.0365 24.4692 74.9699 25.6159C73.9165 26.7492 73.0899 28.0626 72.4899 29.5559C71.9032 31.0492 71.6099 32.6292 71.6099 34.2959C71.6099 36.0026 71.9099 37.6026 72.5099 39.0959C73.1099 40.5759 73.9432 41.8892 75.0099 43.0359C76.0765 44.1692 77.3099 45.0559 78.7099 45.6959C80.1099 46.3359 81.6099 46.6559 83.2099 46.6559C85.0632 46.6559 86.7832 46.2292 88.3699 45.3759C89.9699 44.5226 91.2832 43.4092 92.3099 42.0359L94.2099 43.0559C92.9565 44.8026 91.3765 46.2026 89.4699 47.2559C87.5632 48.2959 85.4765 48.8159 83.2099 48.8159ZM106.081 48.8159C104.241 48.8159 102.561 48.3426 101.041 47.3959C99.5344 46.4492 98.3278 45.1826 97.4211 43.5959C96.5278 41.9959 96.0811 40.2292 96.0811 38.2959C96.0811 36.8292 96.3411 35.4626 96.8611 34.1959C97.3811 32.9159 98.0944 31.7959 99.0011 30.8359C99.9211 29.8626 100.988 29.1026 102.201 28.5559C103.414 28.0092 104.708 27.7359 106.081 27.7359C107.921 27.7359 109.594 28.2092 111.101 29.1559C112.621 30.1026 113.828 31.3759 114.721 32.9759C115.628 34.5759 116.081 36.3492 116.081 38.2959C116.081 39.7492 115.821 41.1092 115.301 42.3759C114.781 43.6426 114.061 44.7626 113.141 45.7359C112.234 46.6959 111.174 47.4492 109.961 47.9959C108.761 48.5426 107.468 48.8159 106.081 48.8159ZM106.081 46.6559C107.561 46.6559 108.888 46.2692 110.061 45.4959C111.248 44.7226 112.188 43.7026 112.881 42.4359C113.574 41.1692 113.921 39.7892 113.921 38.2959C113.921 36.7892 113.574 35.3959 112.881 34.1159C112.188 32.8359 111.248 31.8159 110.061 31.0559C108.874 30.2826 107.548 29.8959 106.081 29.8959C104.601 29.8959 103.268 30.2826 102.081 31.0559C100.894 31.8292 99.9544 32.8559 99.2611 34.1359C98.5811 35.4026 98.2411 36.7892 98.2411 38.2959C98.2411 39.8559 98.5944 41.2692 99.3011 42.5359C100.021 43.7892 100.974 44.7892 102.161 45.5359C103.348 46.2826 104.654 46.6559 106.081 46.6559ZM136.133 18.2959H138.293V48.2959H136.133V44.1759C135.44 45.5759 134.453 46.7026 133.173 47.5559C131.893 48.3959 130.367 48.8159 128.593 48.8159C127.14 48.8159 125.78 48.5426 124.513 47.9959C123.247 47.4492 122.127 46.6959 121.153 45.7359C120.193 44.7626 119.44 43.6426 118.893 42.3759C118.347 41.1092 118.073 39.7492 118.073 38.2959C118.073 36.8426 118.347 35.4826 118.893 34.2159C119.44 32.9359 120.193 31.8159 121.153 30.8559C122.127 29.8826 123.247 29.1226 124.513 28.5759C125.78 28.0292 127.14 27.7559 128.593 27.7559C130.367 27.7559 131.893 28.1826 133.173 29.0359C134.453 29.8759 135.44 30.9892 136.133 32.3759V18.2959ZM128.613 46.6959C130.147 46.6959 131.46 46.3226 132.553 45.5759C133.66 44.8159 134.507 43.7959 135.093 42.5159C135.68 41.2359 135.973 39.8292 135.973 38.2959C135.973 36.7226 135.673 35.3026 135.073 34.0359C134.487 32.7559 133.64 31.7426 132.533 30.9959C131.44 30.2359 130.133 29.8559 128.613 29.8559C127.08 29.8559 125.68 30.2359 124.413 30.9959C123.16 31.7559 122.153 32.7759 121.393 34.0559C120.647 35.3359 120.273 36.7492 120.273 38.2959C120.273 39.8692 120.653 41.2892 121.413 42.5559C122.187 43.8226 123.207 44.8292 124.473 45.5759C125.74 46.3226 127.12 46.6959 128.613 46.6959ZM151.784 48.8159C149.944 48.8159 148.264 48.3426 146.744 47.3959C145.238 46.4492 144.031 45.1826 143.124 43.5959C142.231 41.9959 141.784 40.2292 141.784 38.2959C141.784 36.8292 142.044 35.4626 142.564 34.1959C143.084 32.9159 143.798 31.7959 144.704 30.8359C145.624 29.8626 146.691 29.1026 147.904 28.5559C149.118 28.0092 150.411 27.7359 151.784 27.7359C153.238 27.7359 154.578 28.0226 155.804 28.5959C157.044 29.1559 158.111 29.9492 159.004 30.9759C159.898 32.0026 160.584 33.2159 161.064 34.6159C161.544 36.0026 161.764 37.5226 161.724 39.1759H144.044C144.191 40.6026 144.618 41.8826 145.324 43.0159C146.044 44.1359 146.964 45.0226 148.084 45.6759C149.204 46.3159 150.438 46.6426 151.784 46.6559C153.264 46.6559 154.598 46.2692 155.784 45.4959C156.971 44.7092 157.924 43.6359 158.644 42.2759L160.824 42.7759C160.024 44.5492 158.818 46.0026 157.204 47.1359C155.591 48.2559 153.784 48.8159 151.784 48.8159ZM143.984 37.3359H159.544C159.464 35.9626 159.064 34.7026 158.344 33.5559C157.638 32.3959 156.711 31.4692 155.564 30.7759C154.418 30.0826 153.158 29.7359 151.784 29.7359C150.411 29.7359 149.158 30.0759 148.024 30.7559C146.891 31.4359 145.964 32.3559 145.244 33.5159C144.538 34.6626 144.118 35.9359 143.984 37.3359ZM174.794 27.7359C176.727 27.7359 178.487 28.2092 180.074 29.1559C181.674 30.1026 182.947 31.3759 183.894 32.9759C184.84 34.5626 185.314 36.3292 185.314 38.2759C185.314 39.7292 185.04 41.0959 184.494 42.3759C183.947 43.6426 183.187 44.7626 182.214 45.7359C181.254 46.6959 180.14 47.4492 178.874 47.9959C177.607 48.5426 176.247 48.8159 174.794 48.8159C173.02 48.8159 171.494 48.3892 170.214 47.5359C168.947 46.6826 167.96 45.5626 167.254 44.1759V48.2959H165.094V18.2959H167.254V32.3759C167.96 30.9892 168.947 29.8692 170.214 29.0159C171.494 28.1626 173.02 27.7359 174.794 27.7359ZM174.774 46.6959C176.32 46.6959 177.72 46.3159 178.974 45.5559C180.24 44.7959 181.247 43.7826 181.994 42.5159C182.754 41.2359 183.134 39.8226 183.134 38.2759C183.134 36.7026 182.747 35.2826 181.974 34.0159C181.2 32.7359 180.18 31.7226 178.914 30.9759C177.66 30.2292 176.28 29.8559 174.774 29.8559C173.24 29.8559 171.92 30.2359 170.814 30.9959C169.72 31.7559 168.88 32.7759 168.294 34.0559C167.707 35.3359 167.414 36.7426 167.414 38.2759C167.414 39.8492 167.707 41.2692 168.294 42.5359C168.894 43.8026 169.74 44.8159 170.834 45.5759C171.94 46.3226 173.254 46.6959 174.774 46.6959ZM188.805 48.2959V28.2959H190.965V31.3559C191.685 30.2492 192.638 29.3692 193.825 28.7159C195.011 28.0626 196.305 27.7359 197.705 27.7359C198.491 27.7359 199.245 27.8359 199.965 28.0359L199.065 30.1559C198.491 29.9959 197.931 29.9159 197.385 29.9159C196.211 29.9159 195.138 30.2026 194.165 30.7759C193.191 31.3492 192.411 32.1226 191.825 33.0959C191.251 34.0692 190.965 35.1492 190.965 36.3359V48.2959H188.805ZM210.261 48.8159C208.421 48.8159 206.741 48.3426 205.221 47.3959C203.714 46.4492 202.507 45.1826 201.601 43.5959C200.707 41.9959 200.261 40.2292 200.261 38.2959C200.261 36.8292 200.521 35.4626 201.041 34.1959C201.561 32.9159 202.274 31.7959 203.181 30.8359C204.101 29.8626 205.167 29.1026 206.381 28.5559C207.594 28.0092 208.887 27.7359 210.261 27.7359C211.714 27.7359 213.054 28.0226 214.281 28.5959C215.521 29.1559 216.587 29.9492 217.481 30.9759C218.374 32.0026 219.061 33.2159 219.541 34.6159C220.021 36.0026 220.241 37.5226 220.201 39.1759H202.521C202.667 40.6026 203.094 41.8826 203.801 43.0159C204.521 44.1359 205.441 45.0226 206.561 45.6759C207.681 46.3159 208.914 46.6426 210.261 46.6559C211.741 46.6559 213.074 46.2692 214.261 45.4959C215.447 44.7092 216.401 43.6359 217.121 42.2759L219.301 42.7759C218.501 44.5492 217.294 46.0026 215.681 47.1359C214.067 48.2559 212.261 48.8159 210.261 48.8159ZM202.461 37.3359H218.021C217.941 35.9626 217.541 34.7026 216.821 33.5559C216.114 32.3959 215.187 31.4692 214.041 30.7759C212.894 30.0826 211.634 29.7359 210.261 29.7359C208.887 29.7359 207.634 30.0759 206.501 30.7559C205.367 31.4359 204.441 32.3559 203.721 33.5159C203.014 34.6626 202.594 35.9359 202.461 37.3359ZM240.274 28.2959H242.434V48.2959H240.274L240.214 44.1959C239.534 45.5826 238.561 46.7026 237.294 47.5559C236.041 48.3959 234.534 48.8159 232.774 48.8159C231.321 48.8159 229.954 48.5426 228.674 47.9959C227.407 47.4359 226.287 46.6759 225.314 45.7159C224.341 44.7426 223.581 43.6226 223.034 42.3559C222.487 41.0759 222.214 39.7026 222.214 38.2359C222.214 36.7826 222.481 35.4226 223.014 34.1559C223.561 32.8892 224.314 31.7759 225.274 30.8159C226.234 29.8426 227.347 29.0892 228.614 28.5559C229.881 28.0092 231.234 27.7359 232.674 27.7359C234.447 27.7359 235.981 28.1692 237.274 29.0359C238.581 29.8892 239.601 31.0092 240.334 32.3959L240.274 28.2959ZM232.754 46.6959C234.287 46.6959 235.601 46.3226 236.694 45.5759C237.801 44.8159 238.647 43.7959 239.234 42.5159C239.821 41.2359 240.114 39.8292 240.114 38.2959C240.114 36.7226 239.814 35.3026 239.214 34.0359C238.627 32.7559 237.781 31.7426 236.674 30.9959C235.581 30.2359 234.274 29.8559 232.754 29.8559C231.207 29.8559 229.801 30.2359 228.534 30.9959C227.281 31.7559 226.281 32.7759 225.534 34.0559C224.787 35.3359 224.414 36.7492 224.414 38.2959C224.414 39.8692 224.794 41.2892 225.554 42.5559C226.327 43.8226 227.347 44.8292 228.614 45.5759C229.881 46.3226 231.261 46.6959 232.754 46.6959ZM261.654 48.2959H259.174L253.254 38.0759L248.894 43.2959V48.2959H246.734V18.2959H248.894V39.9359L258.654 28.2959H261.474L254.714 36.3159L261.654 48.2959ZM273.151 48.8159C271.311 48.8159 269.631 48.3426 268.111 47.3959C266.605 46.4492 265.398 45.1826 264.491 43.5959C263.598 41.9959 263.151 40.2292 263.151 38.2959C263.151 36.8292 263.411 35.4626 263.931 34.1959C264.451 32.9159 265.165 31.7959 266.071 30.8359C266.991 29.8626 268.058 29.1026 269.271 28.5559C270.485 28.0092 271.778 27.7359 273.151 27.7359C274.605 27.7359 275.945 28.0226 277.171 28.5959C278.411 29.1559 279.478 29.9492 280.371 30.9759C281.265 32.0026 281.951 33.2159 282.431 34.6159C282.911 36.0026 283.131 37.5226 283.091 39.1759H265.411C265.558 40.6026 265.985 41.8826 266.691 43.0159C267.411 44.1359 268.331 45.0226 269.451 45.6759C270.571 46.3159 271.805 46.6426 273.151 46.6559C274.631 46.6559 275.965 46.2692 277.151 45.4959C278.338 44.7092 279.291 43.6359 280.011 42.2759L282.191 42.7759C281.391 44.5492 280.185 46.0026 278.571 47.1359C276.958 48.2559 275.151 48.8159 273.151 48.8159ZM265.351 37.3359H280.911C280.831 35.9626 280.431 34.7026 279.711 33.5559C279.005 32.3959 278.078 31.4692 276.931 30.7759C275.785 30.0826 274.525 29.7359 273.151 29.7359C271.778 29.7359 270.525 30.0759 269.391 30.7559C268.258 31.4359 267.331 32.3559 266.611 33.5159C265.905 34.6626 265.485 35.9359 265.351 37.3359ZM286.578 48.2959V28.2959H288.738V31.3559C289.458 30.2492 290.411 29.3692 291.598 28.7159C292.785 28.0626 294.078 27.7359 295.478 27.7359C296.265 27.7359 297.018 27.8359 297.738 28.0359L296.838 30.1559C296.265 29.9959 295.705 29.9159 295.158 29.9159C293.985 29.9159 292.911 30.2026 291.938 30.7759C290.965 31.3492 290.185 32.1226 289.598 33.0959C289.025 34.0692 288.738 35.1492 288.738 36.3359V48.2959H286.578Z" fill="#606074"/>
<defs>
<linearGradient id="paint0_linear_201_12" x1="2.13217" y1="61.6722" x2="34.0525" y2="4.00693" gradientUnits="userSpaceOnUse">
<stop stop-color="#FF278F"/>
<stop offset="1" stop-color="#FEDC63"/>
</linearGradient>
<linearGradient id="paint1_linear_201_12" x1="0.338745" y1="60.2153" x2="29.2238" y2="7.67467" gradientUnits="userSpaceOnUse">
<stop stop-color="#FF278F"/>
<stop offset="1" stop-color="#FEDC63"/>
</linearGradient>
<linearGradient id="paint2_linear_201_12" x1="4.71798" y1="58.7035" x2="36.4296" y2="2.47188" gradientUnits="userSpaceOnUse">
<stop stop-color="#FF278F"/>
<stop offset="1" stop-color="#FEDC63"/>
</linearGradient>
</defs>
</svg>
