<svg width="160" height="51" viewBox="0 0 160 51" fill="none" xmlns="http://www.w3.org/2000/svg">
<rect width="160" height="51" fill="#F5F5F5"/>
<path d="M-33 -428C-33 -429.105 -32.1046 -430 -31 -430H470C471.105 -430 472 -429.105 472 -428V2883C472 2884.1 471.105 2885 470 2885H-31C-32.1046 2885 -33 2884.1 -33 2883V-428Z" fill="white"/>
<path d="M-31 -429H470V-431H-31V-429ZM471 -428V2883H473V-428H471ZM470 2884H-31V2886H470V2884ZM-32 2883V-428H-34V2883H-32ZM-31 2884C-31.5523 2884 -32 2883.55 -32 2883H-34C-34 2884.66 -32.6569 2886 -31 2886V2884ZM471 2883C471 2883.55 470.552 2884 470 2884V2886C471.657 2886 473 2884.66 473 2883H471ZM470 -429C470.552 -429 471 -428.552 471 -428H473C473 -429.657 471.657 -431 470 -431V-429ZM-31 -431C-32.6569 -431 -34 -429.657 -34 -428H-32C-32 -428.552 -31.5523 -429 -31 -429V-431Z" fill="black" fill-opacity="0.1"/>
<text fill="black" xml:space="preserve" style="white-space: pre" font-family="Inter" font-size="50" letter-spacing="0em"><tspan x="0" y="46.5">&#x1f6a2;</tspan></text>
<text fill="black" xml:space="preserve" style="white-space: pre" font-family="Inter" font-size="50" letter-spacing="0em"><tspan x="55" y="46.5">&#x1f9ca;</tspan></text>
<text fill="black" xml:space="preserve" style="white-space: pre" font-family="Inter" font-size="50" letter-spacing="0em"><tspan x="110" y="46.5">&#x1f469;&#x200d;&#x2764;&#xfe0f;&#x200d;&#x1f48b;&#x200d;&#x1f468;</tspan></text>
</svg>
