<svg width="215" height="51" viewBox="0 0 215 51" fill="none" xmlns="http://www.w3.org/2000/svg">
<rect width="215" height="51" fill="#F5F5F5"/>
<path d="M-30 -1225C-30 -1226.1 -29.1046 -1227 -28 -1227H473C474.105 -1227 475 -1226.1 475 -1225V2086C475 2087.1 474.105 2088 473 2088H-28C-29.1046 2088 -30 2087.1 -30 2086V-1225Z" fill="white"/>
<path d="M-28 -1226H473V-1228H-28V-1226ZM474 -1225V2086H476V-1225H474ZM473 2087H-28V2089H473V2087ZM-29 2086V-1225H-31V2086H-29ZM-28 2087C-28.5523 2087 -29 2086.55 -29 2086H-31C-31 2087.66 -29.6569 2089 -28 2089V2087ZM474 2086C474 2086.55 473.552 2087 473 2087V2089C474.657 2089 476 2087.66 476 2086H474ZM473 -1226C473.552 -1226 474 -1225.55 474 -1225H476C476 -1226.66 474.657 -1228 473 -1228V-1226ZM-28 -1228C-29.6569 -1228 -31 -1226.66 -31 -1225H-29C-29 -1225.55 -28.5523 -1226 -28 -1226V-1228Z" fill="black" fill-opacity="0.1"/>
<text fill="black" xml:space="preserve" style="white-space: pre" font-family="Inter" font-size="50" letter-spacing="0em"><tspan x="0" y="46.5">&#x1f30d;</tspan></text>
<text fill="black" xml:space="preserve" style="white-space: pre" font-family="Inter" font-size="50" letter-spacing="0em"><tspan x="55" y="46.5">&#x1f412;</tspan></text>
<text fill="black" xml:space="preserve" style="white-space: pre" font-family="Inter" font-size="50" letter-spacing="0em"><tspan x="110" y="46.5">&#x1f9a7;</tspan></text>
<text fill="black" xml:space="preserve" style="white-space: pre" font-family="Inter" font-size="50" letter-spacing="0em"><tspan x="165" y="46.5">&#x1f98d;</tspan></text>
</svg>
