<svg width="160" height="51" viewBox="0 0 160 51" fill="none" xmlns="http://www.w3.org/2000/svg">
<rect width="160" height="51" fill="#F5F5F5"/>
<path d="M-30 -1541C-30 -1542.1 -29.1046 -1543 -28 -1543H473C474.105 -1543 475 -1542.1 475 -1541V1770C475 1771.1 474.105 1772 473 1772H-28C-29.1046 1772 -30 1771.1 -30 1770V-1541Z" fill="white"/>
<path d="M-28 -1542H473V-1544H-28V-1542ZM474 -1541V1770H476V-1541H474ZM473 1771H-28V1773H473V1771ZM-29 1770V-1541H-31V1770H-29ZM-28 1771C-28.5523 1771 -29 1770.55 -29 1770H-31C-31 1771.66 -29.6569 1773 -28 1773V1771ZM474 1770C474 1770.55 473.552 1771 473 1771V1773C474.657 1773 476 1771.66 476 1770H474ZM473 -1542C473.552 -1542 474 -1541.55 474 -1541H476C476 -1542.66 474.657 -1544 473 -1544V-1542ZM-28 -1544C-29.6569 -1544 -31 -1542.66 -31 -1541H-29C-29 -1541.55 -28.5523 -1542 -28 -1542V-1544Z" fill="black" fill-opacity="0.1"/>
<text fill="black" xml:space="preserve" style="white-space: pre" font-family="Inter" font-size="50" letter-spacing="0em"><tspan x="0" y="46.5">&#x1f528;</tspan></text>
<text fill="black" xml:space="preserve" style="white-space: pre" font-family="Inter" font-size="50" letter-spacing="0em"><tspan x="55" y="46.5">&#x1f468;</tspan></text>
<text fill="black" xml:space="preserve" style="white-space: pre" font-family="Inter" font-size="50" letter-spacing="0em"><tspan x="110" y="46.5">&#x26a1;</tspan></text>
</svg>
