<svg width="282" height="51" viewBox="0 0 282 51" fill="none" xmlns="http://www.w3.org/2000/svg">
<rect width="282" height="51" fill="#F5F5F5"/>
<path d="M-27 -2074C-27 -2075.1 -26.1046 -2076 -25 -2076H476C477.105 -2076 478 -2075.1 478 -2074V1237C478 1238.1 477.105 1239 476 1239H-25C-26.1046 1239 -27 1238.1 -27 1237V-2074Z" fill="white"/>
<path d="M-25 -2075H476V-2077H-25V-2075ZM477 -2074V1237H479V-2074H477ZM476 1238H-25V1240H476V1238ZM-26 1237V-2074H-28V1237H-26ZM-25 1238C-25.5523 1238 -26 1237.55 -26 1237H-28C-28 1238.66 -26.6569 1240 -25 1240V1238ZM477 1237C477 1237.55 476.552 1238 476 1238V1240C477.657 1240 479 1238.66 479 1237H477ZM476 -2075C476.552 -2075 477 -2074.55 477 -2074H479C479 -2075.66 477.657 -2077 476 -2077V-2075ZM-25 -2077C-26.6569 -2077 -28 -2075.66 -28 -2074H-26C-26 -2074.55 -25.5523 -2075 -25 -2075V-2077Z" fill="black" fill-opacity="0.1"/>
<text fill="black" xml:space="preserve" style="white-space: pre" font-family="Urbanist" font-size="50" letter-spacing="0em"><tspan x="0" y="46.5">&#x1f1fa;&#x1f1f8;</tspan></text>
<text fill="black" xml:space="preserve" style="white-space: pre" font-family="Urbanist" font-size="50" letter-spacing="0em"><tspan x="58" y="46.5">&#x1f52a;</tspan></text>
<text fill="black" xml:space="preserve" style="white-space: pre" font-family="Urbanist" font-size="50" letter-spacing="0em"><tspan x="116" y="46.5">&#x1fa78;</tspan></text>
<text fill="black" xml:space="preserve" style="white-space: pre" font-family="Urbanist" font-size="50" letter-spacing="0em"><tspan x="174" y="46.5">&#x1f454;</tspan></text>
<text fill="black" xml:space="preserve" style="white-space: pre" font-family="Urbanist" font-size="50" letter-spacing="0em"><tspan x="232" y="46.5">&#x1fa93;</tspan></text>
</svg>
