<svg width="215" height="51" viewBox="0 0 215 51" fill="none" xmlns="http://www.w3.org/2000/svg">
<rect width="215" height="51" fill="#F5F5F5"/>
<path d="M-30 -1614C-30 -1615.1 -29.1046 -1616 -28 -1616H473C474.105 -1616 475 -1615.1 475 -1614V1697C475 1698.1 474.105 1699 473 1699H-28C-29.1046 1699 -30 1698.1 -30 1697V-1614Z" fill="white"/>
<path d="M-28 -1615H473V-1617H-28V-1615ZM474 -1614V1697H476V-1614H474ZM473 1698H-28V1700H473V1698ZM-29 1697V-1614H-31V1697H-29ZM-28 1698C-28.5523 1698 -29 1697.55 -29 1697H-31C-31 1698.66 -29.6569 1700 -28 1700V1698ZM474 1697C474 1697.55 473.552 1698 473 1698V1700C474.657 1700 476 1698.66 476 1697H474ZM473 -1615C473.552 -1615 474 -1614.55 474 -1614H476C476 -1615.66 474.657 -1617 473 -1617V-1615ZM-28 -1617C-29.6569 -1617 -31 -1615.66 -31 -1614H-29C-29 -1614.55 -28.5523 -1615 -28 -1615V-1617Z" fill="black" fill-opacity="0.1"/>
<text fill="black" xml:space="preserve" style="white-space: pre" font-family="Inter" font-size="50" letter-spacing="0em"><tspan x="0" y="46.5">&#x1f469;</tspan></text>
<text fill="black" xml:space="preserve" style="white-space: pre" font-family="Inter" font-size="50" letter-spacing="0em"><tspan x="55" y="46.5">&#x1f19a;</tspan></text>
<text fill="black" xml:space="preserve" style="white-space: pre" font-family="Inter" font-size="50" letter-spacing="0em"><tspan x="110" y="46.5">&#x1f468;</tspan></text>
<text fill="black" xml:space="preserve" style="white-space: pre" font-family="Inter" font-size="50" letter-spacing="0em"><tspan x="165" y="46.5">&#x1f52b;</tspan></text>
</svg>
