<svg width="294" height="51" viewBox="0 0 294 51" fill="none" xmlns="http://www.w3.org/2000/svg">
<rect width="294" height="51" fill="#F5F5F5"/>
<path d="M-27 -1995C-27 -1996.1 -26.1046 -1997 -25 -1997H476C477.105 -1997 478 -1996.1 478 -1995V1316C478 1317.1 477.105 1318 476 1318H-25C-26.1046 1318 -27 1317.1 -27 1316V-1995Z" fill="white"/>
<path d="M-25 -1996H476V-1998H-25V-1996ZM477 -1995V1316H479V-1995H477ZM476 1317H-25V1319H476V1317ZM-26 1316V-1995H-28V1316H-26ZM-25 1317C-25.5523 1317 -26 1316.55 -26 1316H-28C-28 1317.66 -26.6569 1319 -25 1319V1317ZM477 1316C477 1316.55 476.552 1317 476 1317V1319C477.657 1319 479 1317.66 479 1316H477ZM476 -1996C476.552 -1996 477 -1995.55 477 -1995H479C479 -1996.66 477.657 -1998 476 -1998V-1996ZM-25 -1998C-26.6569 -1998 -28 -1996.66 -28 -1995H-26C-26 -1995.55 -25.5523 -1996 -25 -1996V-1998Z" fill="black" fill-opacity="0.1"/>
<text fill="black" xml:space="preserve" style="white-space: pre" font-family="Urbanist" font-size="50" letter-spacing="0em"><tspan x="0" y="46.5">&#x1f30a;</tspan></text>
<text fill="#4B4A65" xml:space="preserve" style="white-space: pre" font-family="Arial" font-size="20" letter-spacing="0em"><tspan x="58" y="31.9336">+</tspan></text>
<text fill="#4B4A65" xml:space="preserve" style="white-space: pre" font-family="Arial" font-size="20" letter-spacing="0em"><tspan x="78" y="31.9336">(</tspan></text>
<text fill="black" xml:space="preserve" style="white-space: pre" font-family="Urbanist" font-size="50" letter-spacing="0em"><tspan x="93" y="46.5">&#x1f51f;</tspan></text>
<text fill="black" xml:space="preserve" style="white-space: pre" font-family="Urbanist" font-size="50" letter-spacing="0em"><tspan x="151" y="46.5">&#x1f9cd;</tspan></text>
<text fill="#4B4A65" xml:space="preserve" style="white-space: pre" font-family="Arial" font-size="20" letter-spacing="0em"><tspan x="209" y="31.9336">)</tspan></text>
<text fill="#4B4A65" xml:space="preserve" style="white-space: pre" font-family="Arial" font-size="20" letter-spacing="0em"><tspan x="224" y="31.9336">+</tspan></text>
<text fill="black" xml:space="preserve" style="white-space: pre" font-family="Urbanist" font-size="50" letter-spacing="0em"><tspan x="244" y="46.5">&#x1f9cd;</tspan></text>
</svg>
