<svg width="105" height="51" viewBox="0 0 105 51" fill="none" xmlns="http://www.w3.org/2000/svg">
<rect width="105" height="51" fill="#F5F5F5"/>
<path d="M-30 -1687C-30 -1688.1 -29.1046 -1689 -28 -1689H473C474.105 -1689 475 -1688.1 475 -1687V1624C475 1625.1 474.105 1626 473 1626H-28C-29.1046 1626 -30 1625.1 -30 1624V-1687Z" fill="white"/>
<path d="M-28 -1688H473V-1690H-28V-1688ZM474 -1687V1624H476V-1687H474ZM473 1625H-28V1627H473V1625ZM-29 1624V-1687H-31V1624H-29ZM-28 1625C-28.5523 1625 -29 1624.55 -29 1624H-31C-31 1625.66 -29.6569 1627 -28 1627V1625ZM474 1624C474 1624.55 473.552 1625 473 1625V1627C474.657 1627 476 1625.66 476 1624H474ZM473 -1688C473.552 -1688 474 -1687.55 474 -1687H476C476 -1688.66 474.657 -1690 473 -1690V-1688ZM-28 -1690C-29.6569 -1690 -31 -1688.66 -31 -1687H-29C-29 -1687.55 -28.5523 -1688 -28 -1688V-1690Z" fill="black" fill-opacity="0.1"/>
<text fill="black" xml:space="preserve" style="white-space: pre" font-family="Inter" font-size="50" letter-spacing="0em"><tspan x="0" y="46.5">&#x1f51d;</tspan></text>
<text fill="black" xml:space="preserve" style="white-space: pre" font-family="Inter" font-size="50" letter-spacing="0em"><tspan x="55" y="46.5">&#x1f52b;</tspan></text>
</svg>
