<svg width="270" height="51" viewBox="0 0 270 51" fill="none" xmlns="http://www.w3.org/2000/svg">
<rect width="270" height="51" fill="#F5F5F5"/>
<path d="M-30 -977C-30 -978.105 -29.1046 -979 -28 -979H473C474.105 -979 475 -978.105 475 -977V2334C475 2335.1 474.105 2336 473 2336H-28C-29.1046 2336 -30 2335.1 -30 2334V-977Z" fill="white"/>
<path d="M-28 -978H473V-980H-28V-978ZM474 -977V2334H476V-977H474ZM473 2335H-28V2337H473V2335ZM-29 2334V-977H-31V2334H-29ZM-28 2335C-28.5523 2335 -29 2334.55 -29 2334H-31C-31 2335.66 -29.6569 2337 -28 2337V2335ZM474 2334C474 2334.55 473.552 2335 473 2335V2337C474.657 2337 476 2335.66 476 2334H474ZM473 -978C473.552 -978 474 -977.552 474 -977H476C476 -978.657 474.657 -980 473 -980V-978ZM-28 -980C-29.6569 -980 -31 -978.657 -31 -977H-29C-29 -977.552 -28.5523 -978 -28 -978V-980Z" fill="black" fill-opacity="0.1"/>
<text fill="black" xml:space="preserve" style="white-space: pre" font-family="Inter" font-size="50" letter-spacing="0em"><tspan x="0" y="46.5">&#x1f303;</tspan></text>
<text fill="black" xml:space="preserve" style="white-space: pre" font-family="Inter" font-size="50" letter-spacing="0em"><tspan x="55" y="46.5">&#x1f3db;&#xfe0f;</tspan></text>
<text fill="black" xml:space="preserve" style="white-space: pre" font-family="Inter" font-size="50" letter-spacing="0em"><tspan x="110" y="46.5">&#x1f996;</tspan></text>
<text fill="black" xml:space="preserve" style="white-space: pre" font-family="Inter" font-size="50" letter-spacing="0em"><tspan x="165" y="46.5">&#x1f526;</tspan></text>
<text fill="black" xml:space="preserve" style="white-space: pre" font-family="Inter" font-size="50" letter-spacing="0em"><tspan x="220" y="46.5">&#x1f46e;</tspan></text>
</svg>
