<svg width="215" height="51" viewBox="0 0 215 51" fill="none" xmlns="http://www.w3.org/2000/svg">
<rect width="215" height="51" fill="#F5F5F5"/>
<path d="M-30 -570C-30 -571.105 -29.1046 -572 -28 -572H473C474.105 -572 475 -571.105 475 -570V2741C475 2742.1 474.105 2743 473 2743H-28C-29.1046 2743 -30 2742.1 -30 2741V-570Z" fill="white"/>
<path d="M-28 -571H473V-573H-28V-571ZM474 -570V2741H476V-570H474ZM473 2742H-28V2744H473V2742ZM-29 2741V-570H-31V2741H-29ZM-28 2742C-28.5523 2742 -29 2741.55 -29 2741H-31C-31 2742.66 -29.6569 2744 -28 2744V2742ZM474 2741C474 2741.55 473.552 2742 473 2742V2744C474.657 2744 476 2742.66 476 2741H474ZM473 -571C473.552 -571 474 -570.552 474 -570H476C476 -571.657 474.657 -573 473 -573V-571ZM-28 -573C-29.6569 -573 -31 -571.657 -31 -570H-29C-29 -570.552 -28.5523 -571 -28 -571V-573Z" fill="black" fill-opacity="0.1"/>
<text fill="black" xml:space="preserve" style="white-space: pre" font-family="Inter" font-size="50" letter-spacing="0em"><tspan x="0" y="46.5">&#x1f3c3;&#x200d;&#x2640;&#xfe0f;</tspan></text>
<text fill="black" xml:space="preserve" style="white-space: pre" font-family="Inter" font-size="50" letter-spacing="0em"><tspan x="55" y="46.5">&#x1f631;</tspan></text>
<text fill="black" xml:space="preserve" style="white-space: pre" font-family="Inter" font-size="50" letter-spacing="0em"><tspan x="110" y="46.5">&#x1f52a;</tspan></text>
<text fill="black" xml:space="preserve" style="white-space: pre" font-family="Inter" font-size="50" letter-spacing="0em"><tspan x="165" y="46.5">&#x1f4de;</tspan></text>
</svg>
