<svg width="160" height="51" viewBox="0 0 160 51" fill="none" xmlns="http://www.w3.org/2000/svg">
<rect width="160" height="51" fill="#F5F5F5"/>
<path d="M-30 -654C-30 -655.105 -29.1046 -656 -28 -656H473C474.105 -656 475 -655.105 475 -654V2657C475 2658.1 474.105 2659 473 2659H-28C-29.1046 2659 -30 2658.1 -30 2657V-654Z" fill="white"/>
<path d="M-28 -655H473V-657H-28V-655ZM474 -654V2657H476V-654H474ZM473 2658H-28V2660H473V2658ZM-29 2657V-654H-31V2657H-29ZM-28 2658C-28.5523 2658 -29 2657.55 -29 2657H-31C-31 2658.66 -29.6569 2660 -28 2660V2658ZM474 2657C474 2657.55 473.552 2658 473 2658V2660C474.657 2660 476 2658.66 476 2657H474ZM473 -655C473.552 -655 474 -654.552 474 -654H476C476 -655.657 474.657 -657 473 -657V-655ZM-28 -657C-29.6569 -657 -31 -655.657 -31 -654H-29C-29 -654.552 -28.5523 -655 -28 -655V-657Z" fill="black" fill-opacity="0.1"/>
<text fill="black" xml:space="preserve" style="white-space: pre" font-family="Inter" font-size="50" letter-spacing="0em"><tspan x="0" y="46.5">&#x1f47d;</tspan></text>
<text fill="black" xml:space="preserve" style="white-space: pre" font-family="Inter" font-size="50" letter-spacing="0em"><tspan x="55" y="46.5">&#x1f4de;</tspan></text>
<text fill="black" xml:space="preserve" style="white-space: pre" font-family="Inter" font-size="50" letter-spacing="0em"><tspan x="110" y="46.5">&#x1f3e0;</tspan></text>
</svg>
