<svg width="105" height="51" viewBox="0 0 105 51" fill="none" xmlns="http://www.w3.org/2000/svg">
<rect width="105" height="51" fill="#F5F5F5"/>
<path d="M-33 -268C-33 -269.105 -32.1046 -270 -31 -270H470C471.105 -270 472 -269.105 472 -268V3043C472 3044.1 471.105 3045 470 3045H-31C-32.1046 3045 -33 3044.1 -33 3043V-268Z" fill="white"/>
<path d="M-31 -269H470V-271H-31V-269ZM471 -268V3043H473V-268H471ZM470 3044H-31V3046H470V3044ZM-32 3043V-268H-34V3043H-32ZM-31 3044C-31.5523 3044 -32 3043.55 -32 3043H-34C-34 3044.66 -32.6569 3046 -31 3046V3044ZM471 3043C471 3043.55 470.552 3044 470 3044V3046C471.657 3046 473 3044.66 473 3043H471ZM470 -269C470.552 -269 471 -268.552 471 -268H473C473 -269.657 471.657 -271 470 -271V-269ZM-31 -271C-32.6569 -271 -34 -269.657 -34 -268H-32C-32 -268.552 -31.5523 -269 -31 -269V-271Z" fill="black" fill-opacity="0.1"/>
<text fill="black" xml:space="preserve" style="white-space: pre" font-family="Inter" font-size="50" letter-spacing="0em"><tspan x="0" y="46.5">&#x1f1fa;&#x1f1f8;</tspan></text>
<text fill="black" xml:space="preserve" style="white-space: pre" font-family="Inter" font-size="50" letter-spacing="0em"><tspan x="55" y="46.5">&#x1f967;</tspan></text>
</svg>
