<svg width="270" height="51" viewBox="0 0 270 51" fill="none" xmlns="http://www.w3.org/2000/svg">
<rect width="270" height="51" fill="#F5F5F5"/>
<path d="M-30 -1141C-30 -1142.1 -29.1046 -1143 -28 -1143H473C474.105 -1143 475 -1142.1 475 -1141V2170C475 2171.1 474.105 2172 473 2172H-28C-29.1046 2172 -30 2171.1 -30 2170V-1141Z" fill="white"/>
<path d="M-28 -1142H473V-1144H-28V-1142ZM474 -1141V2170H476V-1141H474ZM473 2171H-28V2173H473V2171ZM-29 2170V-1141H-31V2170H-29ZM-28 2171C-28.5523 2171 -29 2170.55 -29 2170H-31C-31 2171.66 -29.6569 2173 -28 2173V2171ZM474 2170C474 2170.55 473.552 2171 473 2171V2173C474.657 2173 476 2171.66 476 2170H474ZM473 -1142C473.552 -1142 474 -1141.55 474 -1141H476C476 -1142.66 474.657 -1144 473 -1144V-1142ZM-28 -1144C-29.6569 -1144 -31 -1142.66 -31 -1141H-29C-29 -1141.55 -28.5523 -1142 -28 -1142V-1144Z" fill="black" fill-opacity="0.1"/>
<text fill="black" xml:space="preserve" style="white-space: pre" font-family="Inter" font-size="50" letter-spacing="0em"><tspan x="0" y="46.5">&#x1f485;</tspan></text>
<text fill="black" xml:space="preserve" style="white-space: pre" font-family="Inter" font-size="50" letter-spacing="0em"><tspan x="55" y="46.5">&#x1f484;</tspan></text>
<text fill="black" xml:space="preserve" style="white-space: pre" font-family="Inter" font-size="50" letter-spacing="0em"><tspan x="110" y="46.5">&#x1f460;</tspan></text>
<text fill="black" xml:space="preserve" style="white-space: pre" font-family="Inter" font-size="50" letter-spacing="0em"><tspan x="165" y="46.5">&#x1f469;</tspan></text>
<text fill="black" xml:space="preserve" style="white-space: pre" font-family="Inter" font-size="50" letter-spacing="0em"><tspan x="220" y="46.5">&#x1f469;&#x200d;&#x2764;&#xfe0f;&#x200d;&#x1f48b;&#x200d;&#x1f468;</tspan></text>
</svg>
