<svg width="215" height="51" viewBox="0 0 215 51" fill="none" xmlns="http://www.w3.org/2000/svg">
<rect width="215" height="51" fill="#F5F5F5"/>
<path d="M-30 -43C-30 -44.1046 -29.1046 -45 -28 -45H473C474.105 -45 475 -44.1046 475 -43V3268C475 3269.1 474.105 3270 473 3270H-28C-29.1046 3270 -30 3269.1 -30 3268V-43Z" fill="white"/>
<path d="M-28 -44H473V-46H-28V-44ZM474 -43V3268H476V-43H474ZM473 3269H-28V3271H473V3269ZM-29 3268V-43H-31V3268H-29ZM-28 3269C-28.5523 3269 -29 3268.55 -29 3268H-31C-31 3269.66 -29.6569 3271 -28 3271V3269ZM474 3268C474 3268.55 473.552 3269 473 3269V3271C474.657 3271 476 3269.66 476 3268H474ZM473 -44C473.552 -44 474 -43.5523 474 -43H476C476 -44.6568 474.657 -46 473 -46V-44ZM-28 -46C-29.6569 -46 -31 -44.6569 -31 -43H-29C-29 -43.5523 -28.5523 -44 -28 -44V-46Z" fill="black" fill-opacity="0.1"/>
<text fill="black" xml:space="preserve" style="white-space: pre" font-family="Inter" font-size="50" letter-spacing="0em"><tspan x="0" y="46.5">&#x1f9d9;</tspan></text>
<text fill="black" xml:space="preserve" style="white-space: pre" font-family="Inter" font-size="50" letter-spacing="0em"><tspan x="55" y="46.5">&#x1f9dd;</tspan></text>
<text fill="black" xml:space="preserve" style="white-space: pre" font-family="Inter" font-size="50" letter-spacing="0em"><tspan x="110" y="46.5">&#x1f30b;</tspan></text>
<text fill="black" xml:space="preserve" style="white-space: pre" font-family="Inter" font-size="50" letter-spacing="0em"><tspan x="165" y="46.5">&#x1f48d;</tspan></text>
</svg>
