<svg width="380" height="51" viewBox="0 0 380 51" fill="none" xmlns="http://www.w3.org/2000/svg">
<rect width="380" height="51" fill="#F5F5F5"/>
<path d="M-30 -1468C-30 -1469.1 -29.1046 -1470 -28 -1470H473C474.105 -1470 475 -1469.1 475 -1468V1843C475 1844.1 474.105 1845 473 1845H-28C-29.1046 1845 -30 1844.1 -30 1843V-1468Z" fill="white"/>
<path d="M-28 -1469H473V-1471H-28V-1469ZM474 -1468V1843H476V-1468H474ZM473 1844H-28V1846H473V1844ZM-29 1843V-1468H-31V1843H-29ZM-28 1844C-28.5523 1844 -29 1843.55 -29 1843H-31C-31 1844.66 -29.6569 1846 -28 1846V1844ZM474 1843C474 1843.55 473.552 1844 473 1844V1846C474.657 1846 476 1844.66 476 1843H474ZM473 -1469C473.552 -1469 474 -1468.55 474 -1468H476C476 -1469.66 474.657 -1471 473 -1471V-1469ZM-28 -1471C-29.6569 -1471 -31 -1469.66 -31 -1468H-29C-29 -1468.55 -28.5523 -1469 -28 -1469V-1471Z" fill="black" fill-opacity="0.1"/>
<text fill="black" xml:space="preserve" style="white-space: pre" font-family="Inter" font-size="50" letter-spacing="0em"><tspan x="0" y="46.5">&#x1f535;</tspan></text>
<text fill="black" xml:space="preserve" style="white-space: pre" font-family="Inter" font-size="50" letter-spacing="0em"><tspan x="55" y="46.5">&#x1f9dd;&#x200d;&#x2640;&#xfe0f;</tspan></text>
<text fill="black" xml:space="preserve" style="white-space: pre" font-family="Inter" font-size="50" letter-spacing="0em"><tspan x="110" y="46.5">&#x1f9dd;</tspan></text>
<text fill="black" xml:space="preserve" style="white-space: pre" font-family="Inter" font-size="50" letter-spacing="0em"><tspan x="165" y="46.5">&#x1f30e;</tspan></text>
<text fill="black" xml:space="preserve" style="white-space: pre" font-family="Inter" font-size="50" letter-spacing="0em"><tspan x="220" y="46.5">&#x1f333;</tspan></text>
<text fill="black" xml:space="preserve" style="white-space: pre" font-family="Inter" font-size="50" letter-spacing="0em"><tspan x="275" y="46.5">&#x1f3f9;</tspan></text>
<text fill="black" xml:space="preserve" style="white-space: pre" font-family="Inter" font-size="50" letter-spacing="0em"><tspan x="330" y="46.5">&#x1f409;</tspan></text>
</svg>
